<svg width="2455" height="1581" xmlns="http://www.w3.org/2000/svg" xmlns:xlink="http://www.w3.org/1999/xlink" xml:space="preserve" overflow="hidden"><g transform="translate(-631 -363)"><rect x="711" y="1391" width="561" height="553" fill="#203864"/><text fill="#FFFFFF" font-family="Bierstadt,Bierstadt_MSFontService,sans-serif" font-weight="700" font-size="83" transform="matrix(1 0 0 1 804.898 1597)">Base</text><text fill="#FFFFFF" font-family="Bierstadt,Bierstadt_MSFontService,sans-serif" font-weight="700" font-size="83" transform="matrix(1 0 0 1 1010.09 1597)">map</text><text fill="#FFFFFF" font-family="Bierstadt,Bierstadt_MSFontService,sans-serif" font-weight="700" font-size="83" transform="matrix(1 0 0 1 956.193 1696)">in</text><text fill="#FFFFFF" font-family="Bierstadt,Bierstadt_MSFontService,sans-serif" font-weight="700" font-size="83" transform="matrix(1 0 0 1 758.01 1795)">RoadRunner</text><path d="M646 424.668C646 390.61 673.609 363 707.668 363L1275.33 363C1309.39 363 1337 390.61 1337 424.668L1337 671.332C1337 705.39 1309.39 733 1275.33 733L707.668 733C673.609 733 646 705.39 646 671.332Z" fill="#C00000" fill-rule="evenodd"/><text fill="#FFFFFF" font-family="Bierstadt,Bierstadt_MSFontService,sans-serif" font-weight="700" font-size="83" transform="matrix(1 0 0 1 709.014 527)">Georeferenced</text><text fill="#FFFFFF" font-family="Bierstadt,Bierstadt_MSFontService,sans-serif" font-weight="700" font-size="83" transform="matrix(1 0 0 1 906.808 626)">data</text><path d="M1001.81 733.5 1001.81 1340.29 981.188 1340.29 981.187 733.5ZM1022.44 1329.98 991.5 1391.86 960.563 1329.98Z" fill="#4472C4"/><path d="M2395 424.668C2395 390.61 2422.61 363 2456.67 363L3024.33 363C3058.39 363 3086 390.61 3086 424.668L3086 671.332C3086 705.39 3058.39 733 3024.33 733L2456.67 733C2422.61 733 2395 705.39 2395 671.332Z" fill="#385723" fill-rule="evenodd"/><text fill="#FFFFFF" font-family="Bierstadt,Bierstadt_MSFontService,sans-serif" font-weight="700" font-size="83" transform="matrix(1 0 0 1 2512.53 527)">.</text><text fill="#FFFFFF" font-family="Bierstadt,Bierstadt_MSFontService,sans-serif" font-weight="700" font-size="83" transform="matrix(1 0 0 1 2535.31 527)">udatasmith</text><text fill="#FFFFFF" font-family="Bierstadt,Bierstadt_MSFontService,sans-serif" font-style="italic" font-weight="700" font-size="83" transform="matrix(1 0 0 1 2574.87 626)">for Carla</text><path d="M2395 990.668C2395 956.61 2422.61 929 2456.67 929L3024.33 929C3058.39 929 3086 956.61 3086 990.668L3086 1237.33C3086 1271.39 3058.39 1299 3024.33 1299L2456.67 1299C2422.61 1299 2395 1271.39 2395 1237.33Z" fill="#385723" fill-rule="evenodd"/><text fill="#FFFFFF" font-family="Bierstadt,Bierstadt_MSFontService,sans-serif" font-weight="700" font-size="83" transform="matrix(1 0 0 1 2668.81 1093)">.bin</text><text fill="#FFFFFF" font-family="Bierstadt,Bierstadt_MSFontService,sans-serif" font-style="italic" font-weight="700" font-size="83" transform="matrix(1 0 0 1 2555.86 1192)">for Apollo</text><path d="M2395 1545.67C2395 1511.61 2422.61 1484 2456.67 1484L3024.33 1484C3058.39 1484 3086 1511.61 3086 1545.67L3086 1792.33C3086 1826.39 3058.39 1854 3024.33 1854L2456.67 1854C2422.61 1854 2395 1826.39 2395 1792.33Z" fill="#385723" fill-rule="evenodd"/><text fill="#FFFFFF" font-family="Bierstadt,Bierstadt_MSFontService,sans-serif" font-weight="700" font-size="83" transform="matrix(1 0 0 1 2645.07 1648)">.</text><text fill="#FFFFFF" font-family="Bierstadt,Bierstadt_MSFontService,sans-serif" font-weight="700" font-size="83" transform="matrix(1 0 0 1 2670.03 1648)">xodr</text><text fill="#FFFFFF" font-family="Bierstadt,Bierstadt_MSFontService,sans-serif" font-style="italic" font-weight="700" font-size="83" transform="matrix(1 0 0 1 2561.45 1747)">for SUMO</text><path d="M7.2817-7.30236 1093.59 1075.93 1079.03 1090.54-7.2817 7.30236ZM1100.85 1054.05 1122.82 1119.64 1057.16 1097.86Z" fill="#4472C4" transform="matrix(1 0 0 -1 1272.5 1668.14)"/><path d="M4.55779-9.25063 1081.13 521.175 1072.01 539.677-4.55779 9.25063ZM1080.99 498.116 1122.82 553.215 1053.64 553.62Z" fill="#4472C4" transform="matrix(1 0 0 -1 1272.5 1667.71)"/><path d="M1272.52 1658.19 2343.78 1659.89 2343.74 1680.52 1272.48 1678.81ZM2333.5 1639.25 2395.32 1670.29 2333.4 1701.12Z" fill="#4472C4"/><text font-family="Bierstadt,Bierstadt_MSFontService,sans-serif" font-weight="400" font-size="83" transform="matrix(1 0 0 1 769.827 1076)">Input</text><text font-family="Bierstadt,Bierstadt_MSFontService,sans-serif" font-weight="400" font-size="83" transform="matrix(1 0 0 1 1756.2 1261)">Outputs</text></g></svg>