<svg width="4338" height="2044" xmlns="http://www.w3.org/2000/svg" xmlns:xlink="http://www.w3.org/1999/xlink" xml:space="preserve" overflow="hidden"><g transform="translate(-51 -82)"><rect x="1761.5" y="84.5001" width="878" height="155" stroke="#172C51" stroke-width="4.58333" stroke-miterlimit="8" fill="#767171"/><text fill="#FFFFFF" font-family="Aptos,Aptos_MSFontService,sans-serif" font-weight="400" font-size="83" transform="matrix(1 0 0 1 1895.22 188)">cosimManager</text><text fill="#FFFFFF" font-family="Aptos,Aptos_MSFontService,sans-serif" font-weight="400" font-size="83" transform="matrix(1 0 0 1 2440.04 188)">( </text><text fill="#FFFFFF" font-family="Aptos,Aptos_MSFontService,sans-serif" font-weight="400" font-size="83" transform="matrix(1 0 0 1 2480.72 188)">)</text><rect x="57.4999" y="739.5" width="611" height="156" stroke="#172C51" stroke-width="4.58333" stroke-miterlimit="8" fill="#767171"/><text fill="#FFFFFF" font-family="Aptos,Aptos_MSFontService,sans-serif" font-weight="400" font-size="83" transform="matrix(1 0 0 1 100.587 843)">actorReader</text><text fill="#FFFFFF" font-family="Aptos,Aptos_MSFontService,sans-serif" font-weight="400" font-size="83" transform="matrix(1 0 0 1 559.08 843)">( </text><text fill="#FFFFFF" font-family="Aptos,Aptos_MSFontService,sans-serif" font-weight="400" font-size="83" transform="matrix(1 0 0 1 599.757 843)">)</text><rect x="779.5" y="739.5" width="611" height="156" stroke="#172C51" stroke-width="4.58333" stroke-miterlimit="8" fill="#767171"/><text fill="#FFFFFF" font-family="Aptos,Aptos_MSFontService,sans-serif" font-weight="400" font-size="83" transform="matrix(1 0 0 1 852.26 843)">egoReader</text><text fill="#FFFFFF" font-family="Aptos,Aptos_MSFontService,sans-serif" font-weight="400" font-size="83" transform="matrix(1 0 0 1 1252.13 843)">( </text><text fill="#FFFFFF" font-family="Aptos,Aptos_MSFontService,sans-serif" font-weight="400" font-size="83" transform="matrix(1 0 0 1 1292.81 843)">)</text><rect x="1501.5" y="739.5" width="611" height="156" stroke="#172C51" stroke-width="4.58333" stroke-miterlimit="8" fill="#767171"/><text fill="#FFFFFF" font-family="Aptos,Aptos_MSFontService,sans-serif" font-weight="400" font-size="83" transform="matrix(1 0 0 1 1593.4 843)">egoWriter</text><text fill="#FFFFFF" font-family="Aptos,Aptos_MSFontService,sans-serif" font-weight="400" font-size="83" transform="matrix(1 0 0 1 1955.71 843)">( </text><text fill="#FFFFFF" font-family="Aptos,Aptos_MSFontService,sans-serif" font-weight="400" font-size="83" transform="matrix(1 0 0 1 1996.39 843)">)</text><rect x="2224.5" y="739.5" width="611" height="156" stroke="#172C51" stroke-width="4.58333" stroke-miterlimit="8" fill="#767171"/><text fill="#FFFFFF" font-family="Aptos,Aptos_MSFontService,sans-serif" font-weight="400" font-size="83" transform="matrix(1 0 0 1 2282.32 843)">camReader</text><text fill="#FFFFFF" font-family="Aptos,Aptos_MSFontService,sans-serif" font-weight="400" font-size="83" transform="matrix(1 0 0 1 2711.52 843)">( </text><text fill="#FFFFFF" font-family="Aptos,Aptos_MSFontService,sans-serif" font-weight="400" font-size="83" transform="matrix(1 0 0 1 2752.2 843)">)</text><rect x="2946.5" y="739.5" width="611" height="156" stroke="#172C51" stroke-width="4.58333" stroke-miterlimit="8" fill="#767171"/><text fill="#FFFFFF" font-family="Aptos,Aptos_MSFontService,sans-serif" font-weight="400" font-size="83" transform="matrix(1 0 0 1 3004.15 843)">lidarReader</text><text fill="#FFFFFF" font-family="Aptos,Aptos_MSFontService,sans-serif" font-weight="400" font-size="83" transform="matrix(1 0 0 1 3434.41 843)">( </text><text fill="#FFFFFF" font-family="Aptos,Aptos_MSFontService,sans-serif" font-weight="400" font-size="83" transform="matrix(1 0 0 1 3475.09 843)">)</text><rect x="3647.5" y="739.5" width="696" height="156" stroke="#172C51" stroke-width="4.58333" stroke-miterlimit="8" fill="#767171"/><text fill="#FFFFFF" font-family="Aptos,Aptos_MSFontService,sans-serif" font-weight="400" font-size="83" transform="matrix(1 0 0 1 3690.14 843)">scenarioPlayer</text><text fill="#FFFFFF" font-family="Aptos,Aptos_MSFontService,sans-serif" font-weight="400" font-size="83" transform="matrix(1 0 0 1 4235.81 843)">( </text><text fill="#FFFFFF" font-family="Aptos,Aptos_MSFontService,sans-serif" font-weight="400" font-size="83" transform="matrix(1 0 0 1 4276.48 843)">)</text><rect x="57.4999" y="1082.5" width="911" height="156" stroke="#172C51" stroke-width="4.58333" stroke-miterlimit="8" fill="#767171"/><text fill="#FFFFFF" font-family="Aptos,Aptos_MSFontService,sans-serif" font-weight="400" font-size="83" transform="matrix(1 0 0 1 105.75 1186)">parseActorSnapshot</text><text fill="#FFFFFF" font-family="Aptos,Aptos_MSFontService,sans-serif" font-weight="400" font-size="83" transform="matrix(1 0 0 1 854.483 1186)">( </text><text fill="#FFFFFF" font-family="Aptos,Aptos_MSFontService,sans-serif" font-weight="400" font-size="83" transform="matrix(1 0 0 1 895.16 1186)">)</text><rect x="877.5" y="1347.5" width="911" height="156" stroke="#172C51" stroke-width="4.58333" stroke-miterlimit="8" fill="#767171"/><text fill="#FFFFFF" font-family="Aptos,Aptos_MSFontService,sans-serif" font-weight="400" font-size="83" transform="matrix(1 0 0 1 956.266 1451)">parseEgoSnapshot</text><text fill="#FFFFFF" font-family="Aptos,Aptos_MSFontService,sans-serif" font-weight="400" font-size="83" transform="matrix(1 0 0 1 1644.09 1451)">( </text><text fill="#FFFFFF" font-family="Aptos,Aptos_MSFontService,sans-serif" font-weight="400" font-size="83" transform="matrix(1 0 0 1 1684.76 1451)">)</text><path d="M2210.61 239.5 2210.61 499.769 362.5 499.769 372.813 489.456 372.813 687.848 352.188 687.848 352.188 479.144 2200.3 479.144 2189.98 489.456 2189.98 239.5ZM393.438 677.536 362.5 739.411 331.563 677.536Z" fill="#595959"/><path d="M2211.25 239.5 2211.25 499.768 1085.5 499.768 1095.81 489.456 1095.81 687.848 1075.19 687.848 1075.19 479.143 2200.93 479.143 2190.62 489.456 2190.62 239.5ZM1116.44 677.535 1085.5 739.41 1054.56 677.535Z" fill="#595959"/><path d="M2210.88 239.5 2210.88 499.768 1807.5 499.768 1817.81 489.455 1817.81 687.848 1797.19 687.848 1797.19 479.143 2200.57 479.143 2190.26 489.455 2190.26 239.5ZM1838.44 677.535 1807.5 739.41 1776.56 677.535Z" fill="#595959"/><path d="M0-10.3125 260.267-10.3125 260.267 329.291 249.955 318.979 448.347 318.979 448.347 339.604 239.642 339.604 239.642 0 249.955 10.3125 0 10.3125ZM438.035 298.354 499.91 329.291 438.035 360.229Z" fill="#595959" transform="matrix(1.83697e-16 1 1 -1.83697e-16 2200.5 239.5)"/><path d="M0-10.3125 260.268-10.3125 260.268 1051.65 249.956 1041.34 448.347 1041.34 448.347 1061.97 239.643 1061.97 239.643 0 249.956 10.3125 0 10.3125ZM438.035 1020.72 499.91 1051.65 438.035 1082.59Z" fill="#595959" transform="matrix(1.83697e-16 1 1 -1.83697e-16 2200.5 239.5)"/><path d="M0-10.3125 260.267-10.3125 260.267 1795.34 249.955 1785.03 448.347 1785.03 448.347 1805.66 239.642 1805.66 239.642 0 249.955 10.3125 0 10.3125ZM438.035 1764.41 499.91 1795.34 438.035 1826.28Z" fill="#595959" transform="matrix(1.83697e-16 1 1 -1.83697e-16 2200.5 239.5)"/><rect x="57.0001" y="1949" width="4286" height="155" stroke="#2E75B6" stroke-width="10.3125" stroke-miterlimit="8" fill="#767171"/><text fill="#FFFFFF" font-family="Aptos,Aptos_MSFontService,sans-serif" font-weight="400" font-size="83" transform="matrix(1 0 0 1 1984.65 2053)">Carla server</text><path d="M0.505979-10.3001 9.76769-9.84511 19.4105-8.45346 28.8518-6.22024 38.0294-3.21092 46.8829 0.513515 55.3527 4.89635 63.3787 9.88507 70.8998 15.4312 77.8526 21.4906 84.1708 28.0231 89.783 34.993 94.6105 42.368 98.564 50.1165 101.54 58.2024 103.42 66.5754 104.015 74.3555 104.553 81.3908 104.332 79.9172 105.9 86.8975 105.516 85.5951 108.044 92.4653 107.552 91.3404 110.974 98.0455 110.416 97.0844 114.661 103.569 114.065 102.75 119.065 108.96 118.445 108.258 124.132 114.137 123.495 113.532 129.799 119.027 127.473 117.498 142.927 124.887 134.029 143.494 117.308 135.499 109.613 128.792 103.294 122.26 97.6822 115.29 92.8547 107.915 88.9012 100.166 85.9251 92.0806 84.0448 83.7076 83.4501 75.9275 82.9123 68.8921 83.1329 70.3657 81.5654 63.3854 81.9495 64.6879 79.4208 57.8176 79.9127 58.9425 76.4916 52.2374 77.0491 53.1984 72.8041 46.7135 73.4002 47.5331 68.4 41.3233 69.0197 42.0251 63.333 36.1455 63.9703 36.7505 57.6658 31.2562 58.3207 31.7816 51.467 26.7275 52.1435 27.1861 44.8091 22.6274 45.5137 23.0278 37.7675 19.0194 38.5081 19.3661 30.4187 15.9631 31.2043 16.2566 22.8402 13.514 23.6796 13.7505 15.1095 11.7233 16.0103 11.8945 7.30295 10.6379 8.27001 10.7312-0.505979 10.3001ZM138.336 101.58 187.465 150.283 119.025 160.365Z" fill="#2E75B6" transform="matrix(-1.83697e-16 -1 -1 1.83697e-16 512.783 1082.96)"/><path d="M0.346002-10.3067 21.87-9.58412 43.5449-7.44641 64.8597-4.00093 85.6577 0.659565 105.782 6.44508 125.078 13.2687 143.39 21.0469 160.563 29.7011 176.352 39.1049 183.837 44.168 190.861 49.3549 197.483 54.7138 203.684 60.2395 209.441 65.9285 214.733 71.7781 219.535 77.7868 223.82 83.9539 227.557 90.2787 230.712 96.7587 233.244 103.388 235.109 110.154 236.26 117.035 236.62 123.409 236.948 129.219 236.823 128.098 237.793 133.897 237.564 132.859 239.156 138.635 238.848 137.696 241.041 143.438 240.68 142.603 243.453 148.3 243.059 147.568 246.391 153.207 245.982 152.569 249.853 158.141 249.44 157.587 253.83 163.079 253.421 162.599 258.308 168.001 257.908 167.584 263.272 172.883 262.884 172.519 268.703 177.705 268.329 177.388 274.584 182.449 274.223 182.17 280.891 187.094 280.543 186.848 287.605 191.625 287.104 191.307 302.327 200.373 301.691 200.024 318.24 208.364 317.631 208.081 335.34 215.603 334.746 215.373 353.45 221.987 352.861 221.798 372.394 227.414 371.799 227.262 391.995 231.787 390.802 231.592 402.384 232.791 400.26 253.307 388.076 252.045 366.99 247.32 346.865 241.535 327.57 234.711 309.258 226.933 292.085 218.279 276.295 208.875 268.81 203.812 261.787 198.625 255.165 193.266 248.964 187.741 243.207 182.052 237.915 176.202 233.113 170.193 228.828 164.026 225.09 157.702 221.936 151.222 219.404 144.592 217.539 137.826 216.388 130.946 216.028 124.572 215.7 118.762 215.825 119.882 214.854 114.083 215.084 115.121 213.492 109.345 213.8 110.284 211.607 104.542 211.968 105.377 209.195 99.6802 209.589 100.413 206.256 94.7728 206.666 95.4109 202.795 89.8391 203.208 90.393 198.818 84.9007 199.227 85.381 194.34 79.9795 194.739 80.3967 189.376 75.0973 189.763 75.4606 183.944 70.2748 184.318 70.5925 178.064 65.5316 178.425 65.8106 171.756 60.8859 172.105 61.1321 165.042 56.355 165.544 56.6733 150.321 47.6071 150.957 47.9562 134.408 39.6165 135.017 39.899 117.308 32.3766 117.902 32.6074 99.1977 25.9932 99.7866 26.1818 80.2541 20.5665 80.8484 20.7184 60.6527 16.1928 61.262 16.3102 40.5691 12.9653 41.2025 13.0476 20.1781 10.9741 20.8442 11.0181-0.346002 10.3067ZM394.015 211.267 452.648 247.98 388.098 272.859Z" fill="#2E75B6" transform="matrix(-1.83697e-16 -1 -1 1.83697e-16 1333.48 1348.15)"/><path d="M904.192 1949.58 904.504 1938.83 905.45 1927.82 907 1916.87 909.132 1906.01 911.822 1895.25 915.05 1884.61 918.794 1874.12 923.033 1863.8 927.747 1853.65 932.915 1843.71 938.517 1833.99 944.534 1824.51 950.947 1815.29 957.802 1806.27 972.367 1789.38 988.209 1773.84 996.687 1766.51 1005.35 1759.66 1014.26 1753.22 1023.41 1747.22 1032.77 1741.69 1042.33 1736.64 1052.07 1732.09 1061.97 1728.07 1072.02 1724.6 1082.2 1721.7 1092.48 1719.41 1102.85 1717.74 1113.29 1716.72 1123.43 1716.38 1133.23 1716.06 1132.57 1716.1 1142.36 1715.15 1141.72 1715.23 1151.47 1713.66 1150.86 1713.78 1160.55 1711.61 1159.98 1711.76 1169.59 1709.02 1169.05 1709.2 1178.57 1705.91 1178.05 1706.1 1187.46 1702.28 1186.97 1702.49 1196.24 1698.17 1195.79 1698.39 1204.9 1693.57 1204.47 1693.81 1213.42 1688.53 1213.01 1688.78 1221.76 1683.04 1221.38 1683.3 1229.92 1677.14 1229.56 1677.41 1237.87 1670.83 1237.53 1671.12 1245.59 1664.15 1245.11 1664.59 1260.41 1649.58 1259.83 1650.21 1273.9 1633.89 1273.5 1634.39 1280.03 1625.79 1279.78 1626.14 1285.94 1617.27 1285.7 1617.63 1291.48 1608.52 1291.26 1608.9 1296.64 1599.57 1296.42 1599.96 1301.38 1590.42 1301.18 1590.83 1305.7 1581.11 1305.51 1581.54 1309.57 1571.65 1309.39 1572.1 1312.97 1562.07 1312.53 1563.74 1314.5 1552.58 1334.81 1556.17 1332.69 1568.19 1328.74 1579.26 1324.5 1589.59 1319.79 1599.73 1314.62 1609.67 1309.02 1619.39 1303 1628.87 1296.58 1638.09 1289.73 1647.12 1275.17 1664 1259.32 1679.55 1250.85 1686.87 1242.18 1693.72 1233.27 1700.16 1224.12 1706.16 1214.76 1711.69 1205.2 1716.75 1195.46 1721.29 1185.56 1725.31 1175.51 1728.78 1165.33 1731.68 1155.05 1733.97 1144.68 1735.64 1134.24 1736.66 1124.11 1737 1114.3 1737.32 1114.96 1737.28 1105.18 1738.23 1105.81 1738.15 1096.06 1739.72 1096.67 1739.61 1086.98 1741.77 1087.55 1741.62 1077.94 1744.36 1078.48 1744.19 1068.97 1747.47 1069.48 1747.28 1060.08 1751.1 1060.56 1750.89 1051.29 1755.22 1051.75 1754.99 1042.63 1759.81 1043.06 1759.57 1034.11 1764.86 1034.52 1764.6 1025.77 1770.34 1026.15 1770.08 1017.61 1776.25 1017.97 1775.97 1009.66 1782.55 1010 1782.27 1001.94 1789.23 1002.42 1788.79 987.118 1803.8 987.705 1803.17 973.63 1819.49 974.033 1818.99 967.503 1827.59 967.756 1827.25 961.59 1836.11 961.831 1835.75 956.048 1844.86 956.276 1844.48 950.896 1853.82 951.111 1853.42 946.152 1862.96 946.354 1862.55 941.836 1872.27 942.024 1871.84 937.965 1881.73 938.138 1881.28 934.558 1891.31 934.714 1890.84 931.632 1900.99 931.769 1900.5 929.205 1910.75 929.32 1910.24 927.292 1920.57 927.383 1920.03 925.911 1930.43 925.975 1929.87 925.078 1940.31 925.112 1939.72 924.808 1950.18ZM1292.46 1559.53 1333.03 1503.5 1353.51 1569.58Z" fill="#2E75B6"/><path d="M0.137497-10.3116 16.9443-10.0875 33.8497-9.4194 50.6834-8.32373 67.4138-6.81488 84.0094-4.90714 100.499-2.60617 132.673 3.06632 163.803 10.1078 178.99 14.132 193.762 18.4428 208.148 23.043 222.118 27.9199 235.64 33.061 248.685 38.4542 261.221 44.0878 273.218 49.951 284.647 56.0337 295.477 62.3266 305.679 68.8221 315.223 75.5142 324.079 82.3989 332.215 89.475 339.599 96.7444 346.193 104.212 351.957 111.887 356.838 119.776 360.775 127.886 363.691 136.211 365.501 144.724 366.068 152.62 366.584 159.807 366.385 158.399 367.91 165.572 367.556 164.308 370.058 171.452 369.603 170.358 373.051 177.46 372.543 176.537 376.902 183.583 376.379 182.816 381.617 189.792 381.101 189.159 387.187 196.05 386.692 195.528 393.592 202.321 393.124 201.888 400.806 208.569 400.368 208.209 408.799 214.763 408.39 214.461 417.538 220.875 417.156 220.62 426.987 226.879 426.63 226.662 437.113 232.753 436.777 232.566 447.879 238.475 447.562 238.313 459.25 244.025 458.949 243.884 471.191 249.385 470.904 249.262 483.667 254.539 483.392 254.429 496.643 259.467 496.378 259.371 510.085 264.156 509.827 264.07 523.959 268.588 523.706 268.511 538.229 272.749 537.981 272.68 552.861 276.623 552.495 276.533 583.201 283.479 582.716 283.381 614.464 288.979 614.098 288.921 630.281 291.179 630.034 291.148 646.38 293.027 645.837 292.979 660.698 293.896 659.428 314.482 644.295 313.548 627.555 311.623 611.065 309.322 578.891 303.65 547.761 296.608 532.574 292.584 517.802 288.274 503.416 283.673 489.446 278.796 475.924 273.655 462.879 268.262 450.343 262.629 438.346 256.765 426.917 250.683 416.087 244.39 405.885 237.894 396.341 231.202 387.485 224.318 379.349 217.242 371.965 209.972 365.371 202.505 359.607 194.83 354.726 186.941 350.789 178.831 347.873 170.506 346.063 161.993 345.496 154.097 344.98 146.91 345.179 148.318 343.654 141.145 344.008 142.409 341.505 135.265 341.961 136.359 338.513 129.257 339.021 130.179 334.662 123.133 335.185 123.9 329.947 116.925 330.463 117.558 324.377 110.667 324.872 111.189 317.972 104.396 318.439 104.829 310.758 98.1476 311.196 98.5078 302.765 91.9533 303.174 92.2554 294.026 85.8413 294.408 86.0966 284.577 79.837 284.934 80.0546 274.451 73.9634 274.787 74.1503 263.685 68.2416 264.002 68.4034 252.314 62.6913 252.615 62.8324 240.373 57.3309 240.66 57.4546 227.897 52.1778 228.172 52.287 214.921 47.2489 215.186 47.3458 201.479 42.5604 201.737 42.6466 187.605 38.128 187.857 38.205 173.335 33.9672 173.583 34.036 158.703 30.093 159.069 30.183 128.364 23.2377 128.848 23.3351 97.1005 17.7377 97.4659 17.7954 81.2826 15.5372 81.5301 15.5687 65.184 13.6896 65.4354 13.7154 48.959 12.2295 49.2155 12.2494 32.6413 11.1706 32.9039 11.1843 16.2646 10.5268 16.5344 10.5339-0.137497 10.3116ZM651.28 272.783 711.564 306.716 648.247 334.583Z" fill="#2E75B6" transform="matrix(-1.83697e-16 -1 -1 1.83697e-16 819.216 1950.06)"/><path d="M0.125091-10.3117 23.7329-10.0254 47.4144-9.17395 70.9982-7.77746 94.4395-5.85416 117.693-3.42223 140.715-0.499722 163.46 2.89536 185.883 6.74517 207.939 11.032 229.584 15.7381 250.773 20.8461 271.461 26.3387 291.605 32.1988 311.16 38.4095 330.082 44.9541 348.327 51.8167 365.851 58.9815 382.612 66.4334 398.566 74.1583 413.671 82.143 427.884 90.3758 441.163 98.8471 453.467 107.549 464.753 116.479 474.976 125.635 484.088 135.023 492.037 144.652 498.758 154.536 504.172 164.683 508.181 175.094 510.67 185.738 511.471 195.905 511.681 200.691 511.604 199.808 512.205 204.412 512.059 203.569 513.052 208.168 512.848 207.378 514.228 211.971 513.979 211.242 515.738 215.825 515.456 215.161 517.589 219.733 517.129 218.859 522.49 227.96 521.851 227.003 528.63 236.032 528.006 235.278 536.153 244.217 535.566 243.624 545.03 252.456 544.492 251.987 555.222 260.693 554.732 260.319 566.679 268.881 566.234 268.579 579.346 276.979 578.942 276.734 593.168 284.953 592.799 284.751 608.089 292.773 607.751 292.603 624.054 300.409 623.742 300.267 641.007 307.839 640.718 307.717 658.894 315.037 658.623 314.933 677.661 321.983 677.406 321.892 697.254 328.655 697.011 328.575 717.62 335.032 717.387 334.962 738.705 341.095 738.481 341.033 760.457 346.824 760.241 346.77 782.825 352.201 782.613 352.152 805.754 357.205 805.547 357.162 829.195 361.82 828.99 361.781 853.093 366.025 852.89 365.991 877.399 369.803 877.196 369.773 902.059 373.135 901.855 373.11 927.022 376.003 926.817 375.982 952.237 378.39 952.029 378.372 977.652 380.277 977.331 380.258 1003.37 381.379 1002.48 401.985 976.284 400.857 950.396 398.933 924.769 396.505 899.397 393.588 874.33 390.199 849.619 386.355 825.311 382.076 801.458 377.378 778.108 372.279 755.31 366.797 733.114 360.948 711.569 354.75 690.723 348.219 670.626 341.371 651.324 334.223 632.867 326.79 615.301 319.086 598.674 311.124 583.031 302.917 568.418 294.473 554.882 285.801 542.467 276.903 531.22 267.779 521.19 258.418 512.431 248.808 505.011 238.925 499.106 228.9 496.612 223.553 494.585 218.273 492.978 212.92 491.808 207.504 491.095 202.036 490.874 196.987 490.896 197.347 490.17 188.138 490.409 189.674 488.26 180.483 488.678 181.841 485.152 172.685 485.677 173.834 480.821 164.732 481.393 165.677 475.252 156.647 475.826 157.413 468.447 148.473 469 149.091 460.427 140.259 460.946 140.758 451.227 132.052 451.708 132.458 440.887 123.896 441.331 124.228 429.455 115.828 429.864 116.103 416.978 107.883 417.355 108.112 403.506 100.09 403.855 100.284 389.088 92.4776 389.413 92.6422 373.775 85.07 374.079 85.2114 357.614 77.8911 357.901 78.0135 340.657 70.9631 340.929 71.0698 322.95 64.3073 323.209 64.401 304.542 57.9444 304.792 58.0271 285.482 51.8943 285.723 51.9676 265.817 46.1767 266.051 46.2419 245.595 40.8109 245.824 40.869 224.863 35.8159 225.088 35.8676 203.668 31.2103 203.892 31.2563 182.059 27.0129 182.281 27.0536 160.081 23.242 160.303 23.2777 137.782 19.9159 138.006 19.9468 115.209 17.0529 115.435 17.0791 92.4087 14.6709 92.6381 14.6923 69.4283 12.788 69.6621 12.8045 46.3147 11.4221 46.5537 11.4334 23.1145 10.5907 23.36 10.5966-0.125091 10.3117ZM993.446 360.478 1054.47 393.071 991.78 422.331Z" fill="#2E75B6" transform="matrix(1.83697e-16 1 1 -1.83697e-16 1807.5 895.5)"/><path d="M0.109822-10.3119 28.586-10.0086 57.1119-9.10828 85.5219-7.63137 113.762-5.59723 141.776-3.02507 169.512 0.0660045 196.914 3.65695 223.928 7.72878 250.499 12.2627 276.574 17.2399 302.097 22.6417 327.016 28.4497 351.276 34.6455 374.823 41.2112 397.604 48.1287 419.565 55.3807 440.654 62.9501 460.817 70.8206 480.004 78.9766 498.162 87.4035 515.241 96.0884 531.189 105.02 545.958 114.191 559.498 123.596 571.759 133.237 582.687 143.121 592.135 153.169 596.432 158.433 600.281 163.683 603.742 169.01 606.802 174.417 609.444 179.907 611.65 185.477 613.4 191.125 614.674 196.842 615.45 202.615 615.692 207.956 615.679 207.735 616.33 217.502 616.157 216.189 618.083 225.937 617.773 224.745 620.931 234.454 620.526 233.406 624.878 243.058 624.418 242.159 629.92 251.734 629.437 250.973 636.049 260.453 635.565 259.813 643.246 269.179 642.774 268.642 651.483 277.874 651.031 277.423 660.727 286.503 660.297 286.123 670.939 295.031 670.534 294.708 682.08 303.425 681.697 303.15 694.107 311.657 693.745 311.42 706.977 319.698 706.635 319.493 720.648 327.523 720.323 327.345 735.076 335.108 734.766 334.951 750.218 342.428 749.92 342.289 766.03 349.461 765.743 349.338 782.469 356.185 782.191 356.076 799.493 362.58 799.222 362.482 817.058 368.623 816.793 368.536 835.123 374.295 834.861 374.217 853.643 379.575 853.384 379.505 872.577 384.444 872.319 384.381 891.882 388.881 891.624 388.825 911.516 392.867 911.257 392.818 931.437 396.383 931.175 396.34 951.602 399.409 951.337 399.373 971.969 401.927 971.699 401.897 992.496 403.916 991.959 403.878 1003.41 404.389 1002.49 424.993 990.771 424.471 969.57 422.412 948.67 419.825 927.98 416.717 907.539 413.105 887.388 409.011 867.566 404.451 848.114 399.446 829.071 394.013 810.477 388.17 792.371 381.937 774.794 375.33 757.785 368.367 741.382 361.065 725.626 353.441 710.555 345.511 696.207 337.289 682.623 328.79 669.841 320.028 657.899 311.012 646.839 301.754 636.7 292.26 627.526 282.535 619.363 272.582 612.262 262.402 606.283 251.996 601.492 241.37 597.969 230.539 595.795 219.535 595.093 208.997 594.867 204.002 594.949 204.912 594.292 200.03 594.446 200.897 593.36 196.02 593.575 196.83 592.066 191.96 592.328 192.704 590.403 187.843 590.699 188.519 588.366 183.67 588.683 184.276 585.947 179.442 586.275 179.982 583.145 175.164 583.475 175.643 579.957 170.845 580.285 171.268 576.385 166.491 576.861 167.034 567.947 157.554 568.543 158.138 558.187 148.772 558.73 149.23 546.99 139.998 547.481 140.361 534.41 131.281 534.853 131.573 520.507 122.665 520.908 122.902 505.343 114.184 505.707 114.379 488.978 105.872 489.312 106.034 471.474 97.7558 471.781 97.8921 452.89 89.862 453.175 89.978 433.286 82.215 433.552 82.3146 412.722 74.8378 412.972 74.924 391.255 67.7525 391.492 67.8277 368.943 60.9806 369.17 61.0466 345.845 54.543 346.063 54.6012 322.018 48.4601 322.229 48.5117 297.518 42.7522 297.724 42.7979 272.404 37.4392 272.606 37.4798 246.731 32.5409 246.93 32.5768 220.557 28.0768 220.755 28.1085 193.938 24.0664 194.135 24.0942 166.931 20.5291 167.129 20.5531 139.591 17.4841 139.791 17.5044 111.977 14.9506 112.179 14.9672 84.1427 12.9477 84.3483 12.9605 56.1461 11.4944 56.3561 11.5031 28.0431 10.6095 28.2586 10.614-0.109822 10.3119ZM993.936 383.35 1054.47 416.842 991.354 445.171Z" fill="#2E75B6" transform="matrix(-1.83697e-16 -1 -1 1.83697e-16 2946.34 1949.97)"/><path d="M0.0898844-10.3121 30.8867-10.0437 61.7095-9.24744 92.4083-7.9413 122.924-6.14229 153.198-3.8674 183.17-1.13356 212.781 2.0424 241.973 5.64365 270.686 9.65347 298.862 14.0552 326.441 18.8323 353.365 23.9682 379.574 29.4467 405.012 35.2517 429.619 41.3671 453.337 47.7774 476.11 54.4672 497.88 61.4218 518.591 68.6272 538.187 76.0704 556.614 83.7396 573.819 91.6253 589.749 99.7209 604.354 108.024 617.509 116.49 623.656 120.876 629.377 125.275 634.729 129.737 639.705 134.267 644.297 138.871 648.495 143.556 652.286 148.332 655.656 153.206 658.586 158.188 661.051 163.282 663.022 168.489 664.468 173.801 665.356 179.199 665.625 184.082 665.618 183.962 666.196 192.615 666.023 191.298 667.734 199.934 667.422 198.739 670.229 207.341 669.822 206.291 673.689 214.842 673.227 213.942 678.118 222.425 677.633 221.663 683.51 230.062 683.024 229.422 689.852 237.72 689.378 237.184 697.119 245.363 696.666 244.913 705.284 252.957 704.854 252.578 714.312 260.47 713.906 260.148 724.168 267.871 723.786 267.596 734.815 275.133 734.454 274.897 746.214 282.231 745.872 282.027 758.327 289.141 758.002 288.963 771.115 295.841 770.805 295.685 784.539 302.309 784.241 302.171 798.56 308.525 798.273 308.403 813.14 314.469 812.862 314.36 828.24 320.122 827.969 320.025 843.822 325.466 843.557 325.379 859.849 330.481 859.587 330.403 876.281 335.151 876.022 335.081 893.081 339.456 892.824 339.394 910.212 343.38 909.954 343.325 927.634 346.906 927.376 346.857 945.312 350.015 945.05 349.973 963.206 352.692 962.941 352.656 981.279 354.918 980.783 354.869 1003.73 356.58 1002.19 377.148 979.001 375.418 960.283 373.109 941.865 370.351 923.669 367.147 905.731 363.513 888.085 359.467 870.768 355.026 853.814 350.204 837.259 345.019 821.138 339.486 805.485 333.622 790.337 327.44 775.726 320.957 761.688 314.187 748.258 307.142 735.47 299.837 723.357 292.284 711.955 284.492 701.297 276.472 691.42 268.23 682.359 259.772 674.152 251.101 666.842 242.216 660.475 233.118 655.106 223.803 650.797 214.277 647.623 204.55 645.662 194.655 645.035 185.278 644.792 180.891 644.913 181.996 644.202 177.671 644.428 178.706 643.251 174.385 643.558 175.328 641.924 171.013 642.285 171.854 640.202 167.547 640.595 168.283 638.069 163.987 638.476 164.624 635.515 160.341 635.921 160.889 632.532 156.621 632.928 157.09 629.119 152.839 629.499 153.24 625.278 149.008 625.637 149.351 621.011 145.14 621.35 145.435 616.326 141.247 616.644 141.501 611.23 137.339 611.527 137.559 605.731 133.423 606.139 133.7 593.43 125.521 593.914 125.814 579.765 117.77 580.19 117.999 564.66 110.107 565.036 110.288 548.186 102.565 548.521 102.711 530.412 95.1742 530.712 95.2939 511.403 87.9599 511.677 88.0592 491.228 80.9449 491.478 81.0285 469.949 74.1509 470.181 74.2218 447.632 67.5978 447.848 67.6587 424.339 61.3052 424.542 61.3579 400.133 55.2917 400.326 55.3377 375.078 49.5758 375.262 49.6161 349.233 44.1754 349.411 44.2109 322.662 39.1084 322.834 39.1397 295.426 34.3921 295.594 34.4199 267.585 30.0442 267.751 30.0687 239.202 26.0818 239.366 26.1034 210.337 22.5223 210.5 22.541 181.052 19.3826 181.215 19.3987 151.406 16.6798 151.57 16.6934 121.461 14.4309 121.627 14.4421 91.2788 12.6529 91.4473 12.6615 60.9187 11.3626 61.0908 11.3685 30.4422 10.5767 30.6187 10.5798-0.0898844 10.3121ZM994.12 335.474 1054.46 369.3 991.197 397.28Z" fill="#2E75B6" transform="matrix(-1.83697e-16 -1 -1 1.83697e-16 3621.8 1949.96)"/><path d="M0.0996485-10.312 24.9034-10.0723 49.7543-9.36063 74.5041-8.1932 99.1056-6.5853 123.511-4.55209 147.674-2.1087 171.546 0.729856 195.081 3.9486 218.23 7.53268 240.948 11.4673 263.186 15.7377 284.898 20.3294 306.037 25.228 326.556 30.4192 346.409 35.8892 365.549 41.6243 383.932 47.6112 401.512 53.8373 418.244 60.2908 434.083 66.9608 448.988 73.8379 462.915 80.915 475.823 88.1876 487.672 95.6557 498.421 103.325 508.029 111.21 516.45 119.335 523.624 127.739 529.469 136.466 533.863 145.555 536.564 154.76 537.315 159.822 537.532 164.184 537.724 168.044 537.625 167.044 538.198 170.902 537.892 169.51 540.152 177.213 539.542 175.629 543.251 183.301 542.534 182.051 547.643 189.678 546.918 188.721 553.378 196.288 552.696 195.563 560.459 203.054 559.84 202.503 568.858 209.904 568.306 209.481 578.531 216.777 578.04 216.447 589.424 223.622 588.987 223.362 601.481 230.401 601.091 230.192 614.646 237.08 614.295 236.91 628.864 243.632 628.546 243.492 644.081 250.034 643.79 249.916 660.242 256.262 659.973 256.162 677.294 262.297 677.045 262.212 695.186 268.12 694.953 268.047 713.866 273.714 713.646 273.651 733.283 279.061 733.073 279.006 753.387 284.145 753.186 284.097 774.127 288.949 773.932 288.906 795.452 293.457 795.263 293.419 817.315 297.654 817.13 297.62 839.664 301.523 839.482 301.493 862.45 305.049 862.27 305.023 885.624 308.217 885.444 308.194 909.137 311.011 908.957 310.991 932.939 313.416 932.757 313.4 956.981 315.418 956.797 315.404 981.214 317 980.921 316.985 1003.3 317.81 1002.54 338.421 980.015 337.59 955.36 335.979 930.954 333.946 906.792 331.502 882.919 328.664 859.385 325.445 836.235 321.861 813.517 317.926 791.279 313.656 769.567 309.064 748.429 304.166 727.909 298.974 708.056 293.504 688.916 287.769 670.533 281.782 652.953 275.556 636.221 269.103 620.381 262.433 605.477 255.556 591.55 248.479 578.641 241.206 566.793 233.738 556.043 226.069 546.435 218.184 538.015 210.058 530.841 201.655 524.996 192.928 520.602 183.838 517.9 174.634 517.15 169.572 516.933 165.209 516.741 161.35 516.839 162.35 516.267 158.492 516.573 159.883 514.312 152.181 514.923 153.765 511.214 146.092 511.931 147.343 506.822 139.716 507.547 140.673 501.087 133.106 501.769 133.831 494.006 126.339 494.625 126.89 485.606 119.489 486.159 119.912 475.934 112.617 476.425 112.946 465.041 105.772 465.478 106.032 452.984 98.9929 453.374 99.2019 439.819 92.3135 440.17 92.4837 425.6 85.7612 425.919 85.9017 410.384 79.3602 410.675 79.4775 394.223 73.132 394.492 73.2313 377.171 67.0968 377.42 67.1816 359.279 61.2733 359.512 61.3464 340.599 55.6794 340.819 55.7428 321.182 50.3322 321.392 50.3876 301.078 45.2484 301.28 45.2972 280.339 40.4444 280.533 40.4875 259.013 35.9363 259.202 35.9744 237.15 31.7399 237.335 31.7737 214.802 27.8709 214.984 27.9007 192.015 24.3447 192.196 24.371 168.841 21.1769 169.021 21.1999 145.329 18.3827 145.509 18.4025 121.527 15.9774 121.708 15.9941 97.4851 13.9761 97.6686 13.9898 73.2523 12.394 73.439 12.4045 48.8778 11.246 49.0685 11.2532 24.4108 10.547 24.6063 10.5508-0.0996485 10.312ZM993.376 296.931 1054.46 329.394 991.842 358.787Z" fill="#2E75B6" transform="matrix(1.83697e-16 1 1 -1.83697e-16 3995.5 895.5)"/></g></svg>