<svg width="2904" height="2110" xmlns="http://www.w3.org/2000/svg" xmlns:xlink="http://www.w3.org/1999/xlink" xml:space="preserve" overflow="hidden"><defs><clipPath id="clip0"><rect x="798" y="291" width="2904" height="2110"/></clipPath></defs><g clip-path="url(#clip0)" transform="translate(-798 -291)"><path d="M1823 1645.5C1823 1617.61 1845.61 1595 1873.5 1595L2526.5 1595C2554.39 1595 2577 1617.61 2577 1645.5L2577 1847.5C2577 1875.39 2554.39 1898 2526.5 1898L1873.5 1898C1845.61 1898 1823 1875.39 1823 1847.5Z" fill="#9EE0F8" fill-rule="evenodd"/><text fill="#0D0D0D" font-family="Bierstadt,Bierstadt_MSFontService,sans-serif" font-weight="700" font-size="83" transform="matrix(1 0 0 1 2096.99 1725)">Carla</text><text fill="#0D0D0D" font-family="Bierstadt,Bierstadt_MSFontService,sans-serif" font-weight="400" font-size="83" transform="matrix(1 0 0 1 1932.86 1824)">Main simulator</text><path d="M1823 2149.33C1823 2121.54 1845.54 2099 1873.33 2099L2526.67 2099C2554.46 2099 2577 2121.54 2577 2149.33L2577 2350.67C2577 2378.46 2554.46 2401 2526.67 2401L1873.33 2401C1845.54 2401 1823 2378.46 1823 2350.67Z" fill="#0070C0" fill-rule="evenodd"/><text fill="#FFFFFF" font-family="Bierstadt,Bierstadt_MSFontService,sans-serif" font-style="italic" font-weight="700" font-size="83" transform="matrix(1 0 0 1 2006.09 2229)">Reference</text><text fill="#FFFFFF" font-family="Bierstadt,Bierstadt_MSFontService,sans-serif" font-weight="700" font-size="83" transform="matrix(1 0 0 1 1991.7 2328)">ADS bridge</text><path d="M798 829.668C798 797.267 824.266 771 856.668 771L1622.33 771C1654.73 771 1681 797.267 1681 829.668L1681 1064.33C1681 1096.73 1654.73 1123 1622.33 1123L856.668 1123C824.266 1123 798 1096.73 798 1064.33Z" fill="#F9B3A7" fill-rule="evenodd"/><text fill="#0D0D0D" font-family="Bierstadt,Bierstadt_MSFontService,sans-serif" font-weight="700" font-size="83" transform="matrix(1 0 0 1 987.159 926)">Carla / Ansys</text><text fill="#0D0D0D" font-family="Bierstadt,Bierstadt_MSFontService,sans-serif" font-weight="400" font-size="83" transform="matrix(1 0 0 1 934.588 1025)">Sensor simulator</text><path d="M798 1300.5C798 1272.61 820.61 1250 848.501 1250L1630.5 1250C1658.39 1250 1681 1272.61 1681 1300.5L1681 1502.5C1681 1530.39 1658.39 1553 1630.5 1553L848.501 1553C820.61 1553 798 1530.39 798 1502.5Z" fill="#9EE0F8" fill-rule="evenodd"/><text fill="#0D0D0D" font-family="Bierstadt,Bierstadt_MSFontService,sans-serif" font-weight="700" font-size="83" transform="matrix(1 0 0 1 1136.54 1380)">Carla</text><text fill="#0D0D0D" font-family="Bierstadt,Bierstadt_MSFontService,sans-serif" font-weight="400" font-size="83" transform="matrix(1 0 0 1 881.204 1479)">Scenario framework</text><path d="M2948 595.334C2948 567.535 2970.54 545 2998.33 545L3651.67 545C3679.46 545 3702 567.535 3702 595.334L3702 796.666C3702 824.465 3679.46 847 3651.67 847L2998.33 847C2970.54 847 2948 824.465 2948 796.666Z" fill="#CAF297" fill-rule="evenodd"/><text fill="#0D0D0D" font-family="Bierstadt,Bierstadt_MSFontService,sans-serif" font-weight="700" font-size="83" transform="matrix(1 0 0 1 3207.52 675)">SUMO</text><text fill="#0D0D0D" font-family="Bierstadt,Bierstadt_MSFontService,sans-serif" font-weight="400" font-size="83" transform="matrix(1 0 0 1 3035.83 774)">Traffic simulator</text><path d="M1681.5 942.917 2200.31 942.917C2202.84 942.917 2204.89 944.969 2204.89 947.5L2204.89 1573.19 2195.72 1573.19 2195.72 947.5 2200.31 952.083 1681.5 952.083ZM2214.06 1568.61 2200.31 1596.11 2186.56 1568.61Z" fill="#4E67C8"/><path d="M0-4.58333 747.973-4.58333C750.504-4.58333 752.556-2.53131 752.556 0L752.556 876.17 743.39 876.17 743.39 0 747.973 4.58333 0 4.58333ZM761.723 871.586 747.973 899.086 734.223 871.586Z" fill="#A6A6A6" transform="matrix(-1 1.22465e-16 1.22465e-16 1 2948.47 696.5)"/><path d="M1681.5 1396.92 2200.31 1396.92C2202.84 1396.92 2204.89 1398.97 2204.89 1401.5L2204.89 1572.52 2195.72 1572.52 2195.72 1401.5 2200.31 1406.08 1681.5 1406.08ZM2214.06 1567.94 2200.31 1595.44 2186.56 1567.94Z" fill="#4E67C8"/><path d="M2205.08 1921.42 2205.08 2076.98 2195.92 2076.98 2195.92 1921.42ZM2186.75 1926 2200.5 1898.5 2214.25 1926ZM2214.25 2072.4 2200.5 2099.9 2186.75 2072.4Z" fill="#4E67C8"/><path d="M798 349.668C798 317.267 824.266 291 856.668 291L1622.33 291C1654.73 291 1681 317.267 1681 349.668L1681 584.332C1681 616.734 1654.73 643 1622.33 643L856.668 643C824.266 643 798 616.734 798 584.332Z" fill="#FFDE75" fill-rule="evenodd"/><text fill="#0D0D0D" font-family="Bierstadt,Bierstadt_MSFontService,sans-serif" font-weight="700" font-size="83" transform="matrix(1 0 0 1 991.468 446)">Map creation </text><text fill="#0D0D0D" font-family="Bierstadt,Bierstadt_MSFontService,sans-serif" font-weight="700" font-size="83" transform="matrix(1 0 0 1 1065.88 545)">workflow</text><path d="M1681.5 462.917 2200.31 462.917C2202.84 462.917 2204.89 464.969 2204.89 467.5L2204.89 1572.7 2195.72 1572.7 2195.72 467.5 2200.31 472.083 1681.5 472.083ZM2214.06 1568.12 2200.31 1595.62 2186.56 1568.12Z" fill="#4E67C8"/></g></svg>